<mxfile host="app.diagrams.net" agent="Mozilla/5.0 (Windows NT 10.0; Win64; x64) AppleWebKit/537.36 (KHTML, like Gecko) Chrome/134.0.0.0 Safari/537.36" version="26.1.1">
  <diagram name="Page-1" id="N8ojfdLeOfxHdXXfRmi6">
    <mxGraphModel dx="2250" dy="1971" grid="1" gridSize="10" guides="1" tooltips="1" connect="1" arrows="1" fold="1" page="1" pageScale="1" pageWidth="850" pageHeight="1100" math="0" shadow="0">
      <root>
        <mxCell id="0" />
        <mxCell id="1" parent="0" />
        <mxCell id="fCc26zMX3SwxWqT4VLUR-1" value="AWS Cloud" style="sketch=0;outlineConnect=0;gradientColor=none;html=1;whiteSpace=wrap;fontSize=12;fontStyle=0;shape=mxgraph.aws4.group;grIcon=mxgraph.aws4.group_aws_cloud;strokeColor=#AAB7B8;fillColor=none;verticalAlign=top;align=left;spacingLeft=30;fontColor=#AAB7B8;dashed=0;" vertex="1" parent="1">
          <mxGeometry x="-90" y="-370" width="1210" height="840" as="geometry" />
        </mxCell>
        <mxCell id="fCc26zMX3SwxWqT4VLUR-2" value="US East (N. Virginia)" style="points=[[0,0],[0.25,0],[0.5,0],[0.75,0],[1,0],[1,0.25],[1,0.5],[1,0.75],[1,1],[0.75,1],[0.5,1],[0.25,1],[0,1],[0,0.75],[0,0.5],[0,0.25]];outlineConnect=0;gradientColor=none;html=1;whiteSpace=wrap;fontSize=12;fontStyle=0;container=1;pointerEvents=0;collapsible=0;recursiveResize=0;shape=mxgraph.aws4.group;grIcon=mxgraph.aws4.group_region;strokeColor=#00A4A6;fillColor=none;verticalAlign=top;align=left;spacingLeft=30;fontColor=#147EBA;dashed=1;" vertex="1" parent="1">
          <mxGeometry x="10" y="-300" width="1070" height="720" as="geometry" />
        </mxCell>
        <mxCell id="fCc26zMX3SwxWqT4VLUR-14" value="" style="outlineConnect=0;dashed=0;verticalLabelPosition=bottom;verticalAlign=top;align=center;html=1;shape=mxgraph.aws3.athena;fillColor=#F58534;gradientColor=none;" vertex="1" parent="fCc26zMX3SwxWqT4VLUR-2">
          <mxGeometry x="415" y="310" width="76.5" height="76.5" as="geometry" />
        </mxCell>
        <mxCell id="fCc26zMX3SwxWqT4VLUR-15" value="" style="sketch=0;points=[[0,0,0],[0.25,0,0],[0.5,0,0],[0.75,0,0],[1,0,0],[0,1,0],[0.25,1,0],[0.5,1,0],[0.75,1,0],[1,1,0],[0,0.25,0],[0,0.5,0],[0,0.75,0],[1,0.25,0],[1,0.5,0],[1,0.75,0]];outlineConnect=0;fontColor=#232F3E;fillColor=#01A88D;strokeColor=#ffffff;dashed=0;verticalLabelPosition=bottom;verticalAlign=top;align=center;html=1;fontSize=12;fontStyle=0;aspect=fixed;shape=mxgraph.aws4.resourceIcon;resIcon=mxgraph.aws4.sagemaker;" vertex="1" parent="fCc26zMX3SwxWqT4VLUR-2">
          <mxGeometry x="670" y="310" width="78" height="78" as="geometry" />
        </mxCell>
        <mxCell id="fCc26zMX3SwxWqT4VLUR-16" value="&lt;b&gt;&lt;font style=&quot;font-size: 14px;&quot;&gt;S3 Bucket&lt;/font&gt;&lt;/b&gt;" style="text;html=1;align=center;verticalAlign=middle;whiteSpace=wrap;rounded=0;" vertex="1" parent="fCc26zMX3SwxWqT4VLUR-2">
          <mxGeometry x="60" y="580" width="100" height="30" as="geometry" />
        </mxCell>
        <mxCell id="fCc26zMX3SwxWqT4VLUR-17" value="&lt;b&gt;&lt;font style=&quot;font-size: 14px;&quot;&gt;AWS Crawler&lt;/font&gt;&lt;/b&gt;" style="text;html=1;align=center;verticalAlign=middle;whiteSpace=wrap;rounded=0;" vertex="1" parent="fCc26zMX3SwxWqT4VLUR-2">
          <mxGeometry x="170" y="388" width="100" height="30" as="geometry" />
        </mxCell>
        <mxCell id="fCc26zMX3SwxWqT4VLUR-18" value="&lt;b&gt;&lt;font style=&quot;font-size: 14px;&quot;&gt;AWS Athena&lt;/font&gt;&lt;/b&gt;" style="text;html=1;align=center;verticalAlign=middle;whiteSpace=wrap;rounded=0;" vertex="1" parent="fCc26zMX3SwxWqT4VLUR-2">
          <mxGeometry x="391.5" y="388" width="100" height="30" as="geometry" />
        </mxCell>
        <mxCell id="fCc26zMX3SwxWqT4VLUR-19" value="&lt;b&gt;&lt;font style=&quot;font-size: 14px;&quot;&gt;AWS SageMaker&lt;/font&gt;&lt;/b&gt;" style="text;html=1;align=center;verticalAlign=middle;whiteSpace=wrap;rounded=0;" vertex="1" parent="fCc26zMX3SwxWqT4VLUR-2">
          <mxGeometry x="639" y="388" width="140" height="30" as="geometry" />
        </mxCell>
        <mxCell id="fCc26zMX3SwxWqT4VLUR-21" value="&lt;b&gt;&lt;font style=&quot;font-size: 14px;&quot;&gt;AWS QuickSight&lt;/font&gt;&lt;/b&gt;" style="text;html=1;align=center;verticalAlign=middle;whiteSpace=wrap;rounded=0;" vertex="1" parent="fCc26zMX3SwxWqT4VLUR-2">
          <mxGeometry x="811" y="570" width="140" height="30" as="geometry" />
        </mxCell>
        <mxCell id="fCc26zMX3SwxWqT4VLUR-25" style="edgeStyle=orthogonalEdgeStyle;rounded=0;orthogonalLoop=1;jettySize=auto;html=1;exitX=1;exitY=0.5;exitDx=0;exitDy=0;exitPerimeter=0;entryX=0.029;entryY=0.649;entryDx=0;entryDy=0;entryPerimeter=0;" edge="1" parent="fCc26zMX3SwxWqT4VLUR-2" target="fCc26zMX3SwxWqT4VLUR-15">
          <mxGeometry relative="1" as="geometry">
            <mxPoint x="491.50000000000045" y="360" as="sourcePoint" />
            <mxPoint x="660" y="361" as="targetPoint" />
            <Array as="points" />
          </mxGeometry>
        </mxCell>
        <mxCell id="fCc26zMX3SwxWqT4VLUR-13" value="" style="outlineConnect=0;dashed=0;verticalLabelPosition=bottom;verticalAlign=top;align=center;html=1;shape=mxgraph.aws3.glue;fillColor=#F58534;gradientColor=none;" vertex="1" parent="fCc26zMX3SwxWqT4VLUR-2">
          <mxGeometry x="178.75" y="298.75" width="82.5" height="99" as="geometry" />
        </mxCell>
        <mxCell id="fCc26zMX3SwxWqT4VLUR-24" style="edgeStyle=orthogonalEdgeStyle;rounded=0;orthogonalLoop=1;jettySize=auto;html=1;" edge="1" parent="fCc26zMX3SwxWqT4VLUR-2" target="fCc26zMX3SwxWqT4VLUR-14">
          <mxGeometry relative="1" as="geometry">
            <mxPoint x="260" y="360" as="sourcePoint" />
            <Array as="points">
              <mxPoint x="380" y="360" />
              <mxPoint x="380" y="360" />
            </Array>
          </mxGeometry>
        </mxCell>
        <mxCell id="fCc26zMX3SwxWqT4VLUR-20" value="" style="sketch=0;points=[[0,0,0],[0.25,0,0],[0.5,0,0],[0.75,0,0],[1,0,0],[0,1,0],[0.25,1,0],[0.5,1,0],[0.75,1,0],[1,1,0],[0,0.25,0],[0,0.5,0],[0,0.75,0],[1,0.25,0],[1,0.5,0],[1,0.75,0]];outlineConnect=0;fontColor=#232F3E;fillColor=#8C4FFF;strokeColor=#ffffff;dashed=0;verticalLabelPosition=bottom;verticalAlign=top;align=center;html=1;fontSize=12;fontStyle=0;aspect=fixed;shape=mxgraph.aws4.resourceIcon;resIcon=mxgraph.aws4.quicksight;" vertex="1" parent="fCc26zMX3SwxWqT4VLUR-2">
          <mxGeometry x="842" y="492" width="78" height="78" as="geometry" />
        </mxCell>
        <mxCell id="fCc26zMX3SwxWqT4VLUR-26" style="edgeStyle=orthogonalEdgeStyle;rounded=0;orthogonalLoop=1;jettySize=auto;html=1;exitX=1.054;exitY=0.636;exitDx=0;exitDy=0;exitPerimeter=0;entryX=0.5;entryY=0;entryDx=0;entryDy=0;entryPerimeter=0;" edge="1" parent="fCc26zMX3SwxWqT4VLUR-2" source="fCc26zMX3SwxWqT4VLUR-15" target="fCc26zMX3SwxWqT4VLUR-20">
          <mxGeometry relative="1" as="geometry">
            <mxPoint x="788" y="360" as="sourcePoint" />
            <mxPoint x="1039.0000000000005" y="501" as="targetPoint" />
          </mxGeometry>
        </mxCell>
        <mxCell id="fCc26zMX3SwxWqT4VLUR-22" style="edgeStyle=orthogonalEdgeStyle;rounded=0;orthogonalLoop=1;jettySize=auto;html=1;exitX=0.5;exitY=0;exitDx=0;exitDy=0;exitPerimeter=0;" edge="1" parent="1" source="fCc26zMX3SwxWqT4VLUR-12" target="fCc26zMX3SwxWqT4VLUR-13">
          <mxGeometry relative="1" as="geometry">
            <Array as="points">
              <mxPoint x="115" y="150" />
              <mxPoint x="160" y="150" />
              <mxPoint x="160" y="60" />
            </Array>
          </mxGeometry>
        </mxCell>
        <mxCell id="fCc26zMX3SwxWqT4VLUR-12" value="" style="sketch=0;points=[[0,0,0],[0.25,0,0],[0.5,0,0],[0.75,0,0],[1,0,0],[0,1,0],[0.25,1,0],[0.5,1,0],[0.75,1,0],[1,1,0],[0,0.25,0],[0,0.5,0],[0,0.75,0],[1,0.25,0],[1,0.5,0],[1,0.75,0]];outlineConnect=0;fontColor=#232F3E;fillColor=#7AA116;strokeColor=#ffffff;dashed=0;verticalLabelPosition=bottom;verticalAlign=top;align=center;html=1;fontSize=12;fontStyle=0;aspect=fixed;shape=mxgraph.aws4.resourceIcon;resIcon=mxgraph.aws4.s3;" vertex="1" parent="1">
          <mxGeometry x="80" y="190" width="70" height="70" as="geometry" />
        </mxCell>
      </root>
    </mxGraphModel>
  </diagram>
</mxfile>
